<svg width="35" height="35" viewBox="0 0 35 35" fill="none" xmlns="http://www.w3.org/2000/svg">
<mask id="mask0_26_145" style="mask-type:alpha" maskUnits="userSpaceOnUse" x="0" y="0" width="35" height="35">
<rect width="35" height="35" fill="#D9D9D9"/>
</mask>
<g mask="url(#mask0_26_145)">
<path d="M2.9165 32.0833V5.83332C2.9165 5.03124 3.20209 4.34461 3.77327 3.77343C4.34446 3.20225 5.03109 2.91666 5.83317 2.91666H29.1665C29.9686 2.91666 30.6552 3.20225 31.2264 3.77343C31.7976 4.34461 32.0832 5.03124 32.0832 5.83332V23.3333C32.0832 24.1354 31.7976 24.822 31.2264 25.3932C30.6552 25.9644 29.9686 26.25 29.1665 26.25H8.74984L2.9165 32.0833ZM7.51025 23.3333H29.1665V5.83332H5.83317V24.9739L7.51025 23.3333Z" fill="#6A8B97"/>
</g>
</svg>
