<svg width="35" height="35" viewBox="0 0 35 35" fill="none" xmlns="http://www.w3.org/2000/svg">
<mask id="mask0_26_151" style="mask-type:alpha" maskUnits="userSpaceOnUse" x="0" y="0" width="35" height="35">
<rect width="35" height="35" fill="#6A8B97"/>
</mask>
<g mask="url(#mask0_26_151)">
<path d="M17.4998 30.625L15.3853 28.7291C12.9304 26.5173 10.9009 24.6094 9.29671 23.0052C7.69255 21.401 6.4165 19.9609 5.46859 18.6849C4.52067 17.4088 3.85834 16.2361 3.48161 15.1666C3.10487 14.0972 2.9165 13.0035 2.9165 11.8854C2.9165 9.60067 3.68213 7.69269 5.21338 6.16144C6.74463 4.63019 8.65261 3.86456 10.9373 3.86456C12.2012 3.86456 13.4044 4.13192 14.5467 4.66665C15.6891 5.20137 16.6734 5.95484 17.4998 6.92706C18.3262 5.95484 19.3106 5.20137 20.453 4.66665C21.5953 4.13192 22.7984 3.86456 24.0623 3.86456C26.3471 3.86456 28.255 4.63019 29.7863 6.16144C31.3175 7.69269 32.0832 9.60067 32.0832 11.8854C32.0832 13.0035 31.8948 14.0972 31.5181 15.1666C31.1413 16.2361 30.479 17.4088 29.5311 18.6849C28.5832 19.9609 27.3071 21.401 25.703 23.0052C24.0988 24.6094 22.0693 26.5173 19.6144 28.7291L17.4998 30.625ZM17.4998 26.6875C19.8332 24.5972 21.7533 22.8047 23.2603 21.3099C24.7672 19.8151 25.9582 18.5147 26.8332 17.4088C27.7082 16.3029 28.3158 15.3186 28.6561 14.4557C28.9964 13.5929 29.1665 12.7361 29.1665 11.8854C29.1665 10.4271 28.6804 9.21179 27.7082 8.23956C26.7359 7.26734 25.5207 6.78123 24.0623 6.78123C22.92 6.78123 21.8627 7.10328 20.8905 7.74738C19.9182 8.39147 19.2498 9.21179 18.8853 10.2083H16.1144C15.7498 9.21179 15.0814 8.39147 14.1092 7.74738C13.137 7.10328 12.0797 6.78123 10.9373 6.78123C9.479 6.78123 8.26373 7.26734 7.2915 8.23956C6.31928 9.21179 5.83317 10.4271 5.83317 11.8854C5.83317 12.7361 6.00331 13.5929 6.34359 14.4557C6.68387 15.3186 7.2915 16.3029 8.1665 17.4088C9.0415 18.5147 10.2325 19.8151 11.7394 21.3099C13.2464 22.8047 15.1665 24.5972 17.4998 26.6875Z" fill="#6A8B97"/>
</g>
</svg>
