<svg width="24" height="24" viewBox="0 0 24 24" fill="none" xmlns="http://www.w3.org/2000/svg">
<path d="M12 20.9999L10.55 19.6999C8.86667 18.1832 7.475 16.8749 6.375 15.7749C5.275 14.6749 4.4 13.6916 3.75 12.8249C3.1 11.9416 2.64167 11.1332 2.375 10.3999C2.125 9.66657 2 8.91657 2 8.1499C2 6.58324 2.525 5.2749 3.575 4.2249C4.625 3.1749 5.93333 2.6499 7.5 2.6499C8.36667 2.6499 9.19167 2.83324 9.975 3.1999C10.7583 3.56657 11.4333 4.08324 12 4.7499C12.5667 4.08324 13.2417 3.56657 14.025 3.1999C14.8083 2.83324 15.6333 2.6499 16.5 2.6499C18.0667 2.6499 19.375 3.1749 20.425 4.2249C21.475 5.2749 22 6.58324 22 8.1499C22 8.91657 21.8667 9.66657 21.6 10.3999C21.35 11.1332 20.9 11.9416 20.25 12.8249C19.6 13.6916 18.725 14.6749 17.625 15.7749C16.525 16.8749 15.1333 18.1832 13.45 19.6999L12 20.9999ZM12 18.2999C13.6 16.8666 14.9167 15.6416 15.95 14.6249C16.9833 13.5916 17.8 12.6999 18.4 11.9499C19 11.1832 19.4167 10.5082 19.65 9.9249C19.8833 9.3249 20 8.73324 20 8.1499C20 7.1499 19.6667 6.31657 19 5.6499C18.3333 4.98324 17.5 4.6499 16.5 4.6499C15.7167 4.6499 14.9917 4.8749 14.325 5.3249C13.6583 5.75824 13.2 6.31657 12.95 6.9999H11.05C10.8 6.31657 10.3417 5.75824 9.675 5.3249C9.00833 4.8749 8.28333 4.6499 7.5 4.6499C6.5 4.6499 5.66667 4.98324 5 5.6499C4.33333 6.31657 4 7.1499 4 8.1499C4 8.73324 4.11667 9.3249 4.35 9.9249C4.58333 10.5082 5 11.1832 5.6 11.9499C6.2 12.6999 7.01667 13.5916 8.05 14.6249C9.08333 15.6416 10.4 16.8666 12 18.2999Z" fill="#6A8B97"/>
<path d="M10.2163 7.11475C10.2163 7.13647 10.2163 7.15819 10.3901 7.95144C10.5639 8.7447 10.9115 10.3088 11.1123 12.0378C11.313 13.7669 11.3565 15.6134 11.4223 16.5755C11.4881 17.5376 11.575 17.5593 11.6646 17.5159" stroke="#6A8B97" stroke-width="2" stroke-linecap="round"/>
<path d="M12.6519 17.6477C12.6519 17.5826 12.6519 17.5174 12.7279 16.0826C12.804 14.6479 12.956 11.8455 13.0235 10.3258C13.1143 8.28171 12.8059 7.73045 12.6967 7.55501C12.6471 7.47539 12.5439 7.46647 12.4557 7.46614C12.3675 7.46581 12.2806 7.48753 12.2141 7.54217C11.414 8.19971 12.6519 10.3176 12.6193 10.4387C12.4988 10.8867 12.1266 8.81203 11.8846 7.78706C11.7813 7.34941 11.621 7.00698 11.3149 6.68836C10.8256 6.17911 10.2846 5.79966 9.83371 5.64528C9.44282 5.51147 9.07732 5.31646 7.71991 5.28256C7.16182 5.26862 6.81672 5.44681 6.45433 5.62191C6.00696 5.83808 5.69762 6.08272 5.31317 6.44413C5.00803 6.73098 4.88527 7.20051 4.74176 7.58529C4.59119 7.98899 4.51136 8.34201 4.49984 8.93382C4.48938 9.47077 4.72991 9.85609 5.27663 10.6556C5.60304 11.1329 5.91354 11.3926 6.30885 11.7217C6.76217 12.0992 7.31703 12.7302 7.65869 13.1041C7.96802 13.4427 8.28341 13.827 8.62408 14.2341C8.93138 14.6014 9.05231 15.0343 9.22807 15.4082C9.39527 15.7639 9.70929 16.1534 10.258 16.4292C10.3802 16.4907 10.4992 16.4628 10.5552 16.3976C10.6877 16.2433 10.5243 15.8288 10.2623 14.8042C10.0628 14.0243 9.82647 12.6934 9.627 11.8043C9.33302 10.494 8.83705 9.49074 8.0066 8.13497C6.92484 6.36892 6.09128 5.36057 6.03631 5.27203C5.76625 4.83701 6.44018 6.43162 6.85721 7.46186C7.41132 8.83073 7.86737 10.3827 8.04313 10.9637C8.26079 11.6831 8.67839 12.9462 8.76825 13.3908C8.83528 13.7225 7.80944 11.8211 6.73444 10.2089C5.98842 9.09015 5.73974 8.25709 5.81578 8.15768C6.49169 7.27403 8.65338 8.82651 9.20536 8.7067C9.89186 8.5577 9.33933 6.81344 9.2837 6.09655C9.27424 5.97465 9.25112 5.88787 9.22906 5.79965C9.20701 5.71144 9.18529 5.62455 9.1741 5.79702C9.1001 6.93742 9.03124 7.22356 8.97693 7.35554C8.83473 7.70114 8.50526 6.89638 8.40652 6.68869C8.35268 6.57546 8.37294 6.41582 8.43811 6.33749C8.91418 5.76524 11.0614 6.69758 11.8715 6.64359C12.3574 6.61121 12.9771 6.15119 13.506 5.98529C13.9424 5.84843 14.2739 5.62323 15.2811 5.36057C15.8875 5.20245 16.4463 5.07421 16.9937 4.96493C17.5922 4.84544 18.1362 5.02944 18.4535 5.26972C19.1685 5.81117 19.2559 6.34473 19.3554 6.74037C19.4745 7.21471 18.9294 7.79167 18.3268 8.86601C18.017 9.4182 17.4614 10.3775 16.6843 11.6371C15.6368 13.335 15.1547 13.6966 14.9349 14.0913C14.6907 14.5296 14.5188 15.0988 14.1344 15.7591C13.7273 16.4582 13.6393 12.8961 13.7157 11.7918C13.7434 11.3915 14.0323 10.7402 14.3394 9.97294C14.5185 9.52553 14.9948 8.33213 15.7844 6.75254C16.2031 5.91497 16.5345 5.60217 16.9292 5.31646C17.0256 5.24668 17.1481 5.2717 17.2258 5.32601C17.6178 5.60008 17.4351 6.30128 17.4466 7.54876C17.4536 8.30744 16.8031 9.30312 16.4052 9.84556C15.869 10.5765 15.1982 11.698 14.9023 12.1167C14.8346 12.2125 14.7598 12.2918 14.7153 12.2931C14.299 12.3055 14.7584 11.1766 14.8348 10.6935C14.9037 10.2577 15.2825 9.49008 15.6679 8.85021C15.9073 8.4527 16.2488 8.25643 16.6441 7.97204C16.7456 7.89905 16.7979 7.79694 16.8314 7.66528C17.0112 6.96048 16.4707 6.34802 16.285 6.17258C15.8572 5.76821 15.2219 6.21438 14.8256 6.34637C14.3831 6.49373 14.2107 7.09124 14.1113 7.47535C14.0809 7.5928 14.1001 7.74822 14.1327 7.85914C14.1653 7.97007 14.2305 8.03524 14.3075 8.05795C15.1551 8.30789 16.8176 7.99311 17.5865 7.74131C17.8282 7.66217 18.0269 7.61985 18.2349 7.5978C18.4214 7.57803 18.5976 7.68502 18.751 7.80516C19.0847 8.06654 19.2336 8.47367 19.4646 8.79228C19.7296 9.15769 19.2573 9.59278 19.0167 10.0207C18.7105 10.5651 18.4462 10.9752 18.0842 11.5015C17.7797 11.9441 17.4588 12.488 16.7472 13.7371C16.3984 14.3493 16.0764 14.6617 15.7689 14.9586C15.4905 15.2275 15.1995 15.453 14.8256 15.6718C14.4492 15.8922 14.2331 16.3074 13.9586 16.7136C13.6973 17.1002 13.2898 17.1211 13.0485 17.1645C12.6708 17.2326 12.6743 17.8873 12.4662 18.4028C12.4162 18.5268 12.3675 18.6115 12.3017 18.678C12.2358 18.7445 12.1489 18.7879 12.0716 18.7668C11.7043 18.6668 11.6434 18.1322 11.3257 17.8571C11.2267 17.8018 11.1181 17.7583 11.0186 17.6816C10.9192 17.6049 10.8323 17.4963 10.6112 17.2527" stroke="#6A8B97" stroke-width="2" stroke-linecap="round"/>
</svg>
