<svg width="70" height="52" viewBox="0 0 70 52" fill="none" xmlns="http://www.w3.org/2000/svg">
<path d="M28.7017 1.31153H33.2646L30.5343 17.7677C30.2391 19.5715 29.5503 21.1581 28.468 22.5274C27.3939 23.8967 26.0246 24.9667 24.3601 25.7375C22.6957 26.5 20.8426 26.8813 18.801 26.8813C16.7429 26.8813 15.0128 26.5 13.6108 25.7375C12.2087 24.9667 11.196 23.8967 10.5729 22.5274C9.95793 21.1581 9.79804 19.5715 10.0932 17.7677L12.8236 1.31153H17.3866L14.7177 17.3864C14.5455 18.4359 14.6234 19.3706 14.9513 20.1906C15.2875 21.0023 15.8369 21.6419 16.5994 22.1092C17.3702 22.5766 18.3336 22.8103 19.4897 22.8103C20.6458 22.8103 21.6871 22.5766 22.6137 22.1092C23.5402 21.6419 24.2986 21.0023 24.889 20.1906C25.4793 19.3706 25.8606 18.4359 26.0328 17.3864L28.7017 1.31153ZM40.1429 15.4308L38.3226 26.5H33.8581L37.0066 7.60865H41.2744L40.7332 10.8187H40.9669C41.5573 9.76098 42.3854 8.92055 43.4513 8.29739C44.5173 7.67424 45.7595 7.36267 47.178 7.36267C48.4653 7.36267 49.5476 7.64144 50.4249 8.199C51.3022 8.74836 51.9254 9.556 52.2944 10.6219C52.6633 11.6796 52.7207 12.9628 52.4666 14.4715L50.4495 26.5H45.9972L47.879 15.1603C48.0922 13.9058 47.9323 12.9218 47.3993 12.2085C46.8746 11.4869 46.03 11.1262 44.8657 11.1262C44.0868 11.1262 43.3693 11.2984 42.7134 11.6427C42.0574 11.9789 41.504 12.4668 41.053 13.1063C40.6103 13.7459 40.3069 14.5207 40.1429 15.4308ZM54.951 26.5L58.0995 7.60865H62.5518L59.4032 26.5H54.951ZM60.9775 4.90285C60.2642 4.90285 59.6738 4.66507 59.2064 4.18951C58.7391 3.71394 58.5341 3.14409 58.5915 2.47994C58.6489 1.81579 58.9482 1.24593 59.4893 0.77037C60.0387 0.294807 60.6659 0.0570252 61.3711 0.0570252C62.0844 0.0570252 62.6707 0.294807 63.1298 0.77037C63.5972 1.24593 63.8022 1.81579 63.7448 2.47994C63.6956 3.14409 63.3963 3.71394 62.847 4.18951C62.3058 4.66507 61.6826 4.90285 60.9775 4.90285ZM0.618206 45.5H-0.00915172L9.88096 26.6055H10.6928L14.3094 45.5H13.682L10.2131 27.3435H10.1393L0.618206 45.5ZM3.93951 38.5253H12.7225L12.6118 39.1157H3.8288L3.93951 38.5253ZM17.6607 45.5L20.0225 31.3291H20.6129L20.2439 33.5802H20.3177C20.7605 32.8421 21.4002 32.2517 22.2367 31.8088C23.0793 31.366 23.9896 31.1446 24.9675 31.1446C25.0413 31.1446 25.0905 31.1446 25.1151 31.1446C25.1398 31.1446 25.189 31.1446 25.2628 31.1446L25.1521 31.735C25.0782 31.735 25.029 31.735 25.0044 31.735C24.9798 31.735 24.9306 31.735 24.8568 31.735C24.0203 31.735 23.2454 31.9165 22.5319 32.2794C21.8246 32.6422 21.2311 33.1435 20.7513 33.7832C20.2777 34.4228 19.9733 35.1547 19.838 35.9789L18.2511 45.5H17.6607ZM33.7875 31.3291L33.6767 31.9195H28.0674L28.1781 31.3291H33.7875ZM30.7983 27.934H31.3887L28.99 42.5108C28.8916 43.0644 28.9316 43.541 29.1099 43.9408C29.2883 44.3345 29.562 44.6389 29.931 44.8542C30.3001 45.0633 30.7245 45.1679 31.2042 45.1679C31.3703 45.1679 31.5302 45.1525 31.684 45.1217C31.8439 45.0848 32.0161 45.0387 32.2006 44.9834L32.2744 45.5369C32.0714 45.6107 31.8777 45.6661 31.6932 45.703C31.5148 45.7399 31.3149 45.7583 31.0935 45.7583C30.5153 45.7583 30.0018 45.6261 29.5528 45.3616C29.1099 45.0971 28.7778 44.722 28.5564 44.2361C28.3411 43.7502 28.2888 43.1751 28.3996 42.5108L30.7983 27.934ZM36.1031 45.5L38.465 31.3291H39.0554L36.6936 45.5H36.1031ZM39.2215 28.7459C39.037 28.7459 38.8893 28.6813 38.7786 28.5521C38.6741 28.4229 38.6372 28.2661 38.6679 28.0816C38.6925 27.9524 38.7663 27.8356 38.8893 27.731C39.0124 27.6203 39.1477 27.5649 39.2953 27.5649C39.4798 27.5649 39.6243 27.6295 39.7289 27.7587C39.8396 27.8878 39.8796 28.0447 39.8488 28.2292C39.8242 28.3645 39.7504 28.4845 39.6274 28.589C39.5044 28.6936 39.3691 28.7459 39.2215 28.7459ZM45.7003 51.1093C44.9131 51.1093 44.1996 51.0017 43.5599 50.7864C42.9203 50.5773 42.3883 50.2605 41.9639 49.8362C41.5395 49.4179 41.2596 48.8951 41.1243 48.2678L41.6779 48.0832C41.8009 48.6368 42.0438 49.0919 42.4067 49.4487C42.7696 49.8115 43.2309 50.0791 43.7906 50.2513C44.3503 50.4297 44.9869 50.5189 45.7003 50.5189C47.1765 50.5189 48.4035 50.1283 49.3814 49.3472C50.3594 48.5661 50.9775 47.3821 51.2358 45.7952L51.8632 41.9573H51.7894C51.4204 42.7445 50.9468 43.4027 50.3686 43.9316C49.7966 44.4544 49.1662 44.848 48.4773 45.1125C47.7946 45.3708 47.1027 45.5 46.4015 45.5C45.2944 45.5 44.381 45.2017 43.6614 44.6051C42.9418 44.0085 42.4467 43.1812 42.1761 42.1233C41.9054 41.0654 41.887 39.8415 42.1207 38.4514C42.3544 37.0491 42.785 35.7944 43.4123 34.6873C44.0397 33.5802 44.8147 32.7068 45.7372 32.0672C46.6598 31.4275 47.6808 31.1077 48.8002 31.1077C49.5629 31.1077 50.2302 31.2645 50.8022 31.5782C51.3804 31.8857 51.8509 32.3286 52.2138 32.9067C52.5828 33.4787 52.835 34.1584 52.9703 34.9456H53.0441L53.6346 31.3291H54.225L51.8263 45.7952C51.6295 46.9638 51.2574 47.9418 50.71 48.729C50.1626 49.5163 49.4645 50.1099 48.6157 50.5096C47.7669 50.9094 46.7951 51.1093 45.7003 51.1093ZM46.4015 44.9095C47.3856 44.9095 48.2928 44.6481 49.1231 44.1253C49.9596 43.6025 50.6669 42.8583 51.2451 41.8927C51.8294 40.9271 52.2322 39.78 52.4537 38.4514C52.6628 37.1721 52.6597 36.025 52.4444 35.0102C52.2353 33.9892 51.8201 33.1835 51.1989 32.593C50.5839 31.9964 49.772 31.6981 48.7633 31.6981C47.7669 31.6981 46.8474 31.9964 46.0048 32.593C45.1683 33.1835 44.461 33.9892 43.8828 35.0102C43.3108 36.025 42.9203 37.1721 42.7112 38.4514C42.502 39.7308 42.5051 40.8563 42.7204 41.8281C42.9418 42.7937 43.36 43.5503 43.9751 44.0977C44.5963 44.6389 45.4051 44.9095 46.4015 44.9095ZM61.9793 45.7952C60.8599 45.7952 59.9066 45.4723 59.1193 44.8265C58.3382 44.1807 57.7785 43.2981 57.4402 42.1787C57.1081 41.0593 57.0589 39.7923 57.2926 38.3776C57.5263 36.9999 57.9876 35.7637 58.6765 34.6688C59.3715 33.5679 60.208 32.7007 61.1859 32.0672C62.17 31.4275 63.2095 31.1077 64.3043 31.1077C65.436 31.1077 66.3924 31.4336 67.1735 32.0856C67.9608 32.7376 68.5205 33.6233 68.8526 34.7427C69.1909 35.8621 69.2493 37.1229 69.0279 38.5253C68.7942 39.903 68.3298 41.1423 67.6348 42.2433C66.9398 43.3381 66.1002 44.2053 65.1161 44.845C64.132 45.4785 63.0865 45.7952 61.9793 45.7952ZM61.9793 45.2048C63.0003 45.2048 63.9629 44.9095 64.867 44.3191C65.7712 43.7225 66.54 42.9106 67.1735 41.8835C67.807 40.8502 68.2283 39.6816 68.4374 38.3776C68.6466 37.1106 68.6066 35.9728 68.3175 34.9641C68.0284 33.9554 67.5395 33.1589 66.8506 32.5746C66.1617 31.9903 65.3253 31.6981 64.3412 31.6981C63.3325 31.6981 62.3761 31.9995 61.4719 32.6023C60.5678 33.1989 59.7959 34.0138 59.1562 35.0471C58.5166 36.0743 58.0922 37.2336 57.8831 38.5253C57.6616 39.7923 57.6955 40.9301 57.9846 41.9388C58.2798 42.9475 58.7718 43.744 59.4607 44.3283C60.1557 44.9126 60.9953 45.2048 61.9793 45.2048Z" fill="white"/>
</svg>
