<svg width="35" height="35" viewBox="0 0 35 35" fill="none" xmlns="http://www.w3.org/2000/svg">
<mask id="mask0_106_307" style="mask-type:alpha" maskUnits="userSpaceOnUse" x="0" y="0" width="35" height="35">
<rect width="35" height="35" fill="#D9D9D9"/>
</mask>
<g mask="url(#mask0_106_307)">
<path d="M5.83317 29.1667C5.03109 29.1667 4.34446 28.8811 3.77327 28.3099C3.20209 27.7388 2.9165 27.0521 2.9165 26.25V8.75004C2.9165 7.94796 3.20209 7.26133 3.77327 6.69014C4.34446 6.11896 5.03109 5.83337 5.83317 5.83337H29.1665C29.9686 5.83337 30.6552 6.11896 31.2264 6.69014C31.7976 7.26133 32.0832 7.94796 32.0832 8.75004V26.25C32.0832 27.0521 31.7976 27.7388 31.2264 28.3099C30.6552 28.8811 29.9686 29.1667 29.1665 29.1667H5.83317ZM17.4998 18.9584L5.83317 11.6667V26.25H29.1665V11.6667L17.4998 18.9584ZM17.4998 16.0417L29.1665 8.75004H5.83317L17.4998 16.0417ZM5.83317 11.6667V8.75004V26.25V11.6667Z" fill="#1C1B1F"/>
</g>
</svg>
