<svg width="29" height="29" viewBox="0 0 29 29" fill="none" xmlns="http://www.w3.org/2000/svg">
<mask id="mask0_10_42" style="mask-type:alpha" maskUnits="userSpaceOnUse" x="0" y="0" width="29" height="29">
<rect width="29" height="29" fill="#D9D9D9"/>
</mask>
<g mask="url(#mask0_10_42)">
<path d="M4.83341 24.1649C4.16883 24.1649 3.59991 23.9282 3.12664 23.455C2.65338 22.9817 2.41675 22.4128 2.41675 21.7482V7.24821C2.41675 6.58363 2.65338 6.0147 3.12664 5.54144C3.59991 5.06817 4.16883 4.83154 4.83341 4.83154H24.1667C24.8313 4.83154 25.4003 5.06817 25.8735 5.54144C26.3468 6.0147 26.5834 6.58363 26.5834 7.24821V21.7482C26.5834 22.4128 26.3468 22.9817 25.8735 23.455C25.4003 23.9282 24.8313 24.1649 24.1667 24.1649H4.83341ZM14.5001 15.7065L4.83341 9.66488V21.7482H24.1667V9.66488L14.5001 15.7065ZM14.5001 13.2899L24.1667 7.24821H4.83341L14.5001 13.2899ZM4.83341 9.66488V7.24821V21.7482V9.66488Z" fill="#6A8B97"/>
</g>
</svg>
