<svg width="35" height="35" viewBox="0 0 35 35" fill="none" xmlns="http://www.w3.org/2000/svg">
<mask id="mask0_106_312" style="mask-type:alpha" maskUnits="userSpaceOnUse" x="0" y="0" width="35" height="35">
<rect width="35" height="35" fill="#D9D9D9"/>
</mask>
<g mask="url(#mask0_106_312)">
<path d="M5.8335 27.7083V24.7916H8.75016V14.5833C8.75016 12.5659 9.3578 10.7734 10.5731 9.20569C11.7884 7.63798 13.3682 6.61107 15.3127 6.12496V5.10413C15.3127 4.49649 15.5253 3.97999 15.9507 3.55465C16.376 3.1293 16.8925 2.91663 17.5002 2.91663C18.1078 2.91663 18.6243 3.1293 19.0496 3.55465C19.475 3.97999 19.6877 4.49649 19.6877 5.10413V6.12496C21.6321 6.61107 23.212 7.63798 24.4272 9.20569C25.6425 10.7734 26.2502 12.5659 26.2502 14.5833V24.7916H29.1668V27.7083H5.8335ZM17.5002 32.0833C16.6981 32.0833 16.0114 31.7977 15.4403 31.2265C14.8691 30.6553 14.5835 29.9687 14.5835 29.1666H20.4168C20.4168 29.9687 20.1312 30.6553 19.5601 31.2265C18.9889 31.7977 18.3022 32.0833 17.5002 32.0833ZM11.6668 24.7916H23.3335V14.5833C23.3335 12.9791 22.7623 11.6059 21.62 10.4635C20.4776 9.32114 19.1043 8.74996 17.5002 8.74996C15.896 8.74996 14.5227 9.32114 13.3804 10.4635C12.238 11.6059 11.6668 12.9791 11.6668 14.5833V24.7916Z" fill="#1C1B1F"/>
</g>
</svg>
