<svg width="29" height="29" viewBox="0 0 29 29" fill="none" xmlns="http://www.w3.org/2000/svg">
<mask id="mask0_10_47" style="mask-type:alpha" maskUnits="userSpaceOnUse" x="0" y="0" width="29" height="29">
<rect width="29" height="29" fill="#D9D9D9"/>
</mask>
<g mask="url(#mask0_10_47)">
<path d="M4.83325 22.9601V20.5435H7.24992V12.0851C7.24992 10.4136 7.75339 8.92835 8.76034 7.62939C9.76728 6.33044 11.0763 5.47957 12.6874 5.07679V4.23096C12.6874 3.72748 12.8636 3.29953 13.2161 2.9471C13.5685 2.59467 13.9964 2.41846 14.4999 2.41846C15.0034 2.41846 15.4313 2.59467 15.7838 2.9471C16.1362 3.29953 16.3124 3.72748 16.3124 4.23096V5.07679C17.9235 5.47957 19.2326 6.33044 20.2395 7.62939C21.2465 8.92835 21.7499 10.4136 21.7499 12.0851V20.5435H24.1666V22.9601H4.83325ZM14.4999 26.5851C13.8353 26.5851 13.2664 26.3485 12.7931 25.8752C12.3199 25.402 12.0833 24.833 12.0833 24.1685H16.9166C16.9166 24.833 16.68 25.402 16.2067 25.8752C15.7334 26.3485 15.1645 26.5851 14.4999 26.5851ZM9.66659 20.5435H19.3333V12.0851C19.3333 10.756 18.86 9.61811 17.9135 8.67158C16.9669 7.72505 15.8291 7.25179 14.4999 7.25179C13.1708 7.25179 12.0329 7.72505 11.0864 8.67158C10.1399 9.61811 9.66659 10.756 9.66659 12.0851V20.5435Z" fill="#6A8B97"/>
</g>
</svg>
