<svg width="29" height="29" viewBox="0 0 29 29" fill="none" xmlns="http://www.w3.org/2000/svg">
<mask id="mask0_10_57" style="mask-type:alpha" maskUnits="userSpaceOnUse" x="0" y="0" width="29" height="29">
<rect width="29" height="29" fill="#D9D9D9"/>
</mask>
<g mask="url(#mask0_10_57)">
<path d="M14.4999 14.4977C13.1708 14.4977 12.0329 14.0245 11.0864 13.0779C10.1399 12.1314 9.66659 10.9936 9.66659 9.66439C9.66659 8.33522 10.1399 7.19737 11.0864 6.25085C12.0329 5.30432 13.1708 4.83105 14.4999 4.83105C15.8291 4.83105 16.9669 5.30432 17.9135 6.25085C18.86 7.19737 19.3333 8.33522 19.3333 9.66439C19.3333 10.9936 18.86 12.1314 17.9135 13.0779C16.9669 14.0245 15.8291 14.4977 14.4999 14.4977ZM4.83325 24.1644V20.7811C4.83325 20.0963 5.00947 19.467 5.3619 18.893C5.71433 18.3191 6.18256 17.8811 6.76659 17.579C8.0152 16.9547 9.28395 16.4864 10.5728 16.1743C11.8617 15.8621 13.1708 15.7061 14.4999 15.7061C15.8291 15.7061 17.1381 15.8621 18.427 16.1743C19.7159 16.4864 20.9846 16.9547 22.2333 17.579C22.8173 17.8811 23.2855 18.3191 23.6379 18.893C23.9904 19.467 24.1666 20.0963 24.1666 20.7811V24.1644H4.83325ZM7.24992 21.7477H21.7499V20.7811C21.7499 20.5595 21.6945 20.3581 21.5838 20.1769C21.473 19.9956 21.327 19.8547 21.1458 19.754C20.0583 19.2102 18.9607 18.8024 17.853 18.5305C16.7454 18.2587 15.6277 18.1227 14.4999 18.1227C13.3721 18.1227 12.2544 18.2587 11.1468 18.5305C10.0392 18.8024 8.94159 19.2102 7.85409 19.754C7.67284 19.8547 7.52683 19.9956 7.41607 20.1769C7.3053 20.3581 7.24992 20.5595 7.24992 20.7811V21.7477ZM14.4999 12.0811C15.1645 12.0811 15.7334 11.8444 16.2067 11.3712C16.68 10.8979 16.9166 10.329 16.9166 9.66439C16.9166 8.99981 16.68 8.43088 16.2067 7.95762C15.7334 7.48435 15.1645 7.24772 14.4999 7.24772C13.8353 7.24772 13.2664 7.48435 12.7931 7.95762C12.3199 8.43088 12.0833 8.99981 12.0833 9.66439C12.0833 10.329 12.3199 10.8979 12.7931 11.3712C13.2664 11.8444 13.8353 12.0811 14.4999 12.0811Z" fill="#6A8B97"/>
</g>
</svg>
