<svg width="35" height="35" viewBox="0 0 35 35" fill="none" xmlns="http://www.w3.org/2000/svg">
<mask id="mask0_106_327" style="mask-type:alpha" maskUnits="userSpaceOnUse" x="0" y="0" width="35" height="35">
<rect width="35" height="35" fill="#D9D9D9"/>
</mask>
<g mask="url(#mask0_106_327)">
<path d="M17.5002 17.4999C15.896 17.4999 14.5227 16.9287 13.3804 15.7864C12.238 14.644 11.6668 13.2708 11.6668 11.6666C11.6668 10.0624 12.238 8.68915 13.3804 7.54679C14.5227 6.40443 15.896 5.83325 17.5002 5.83325C19.1043 5.83325 20.4776 6.40443 21.62 7.54679C22.7623 8.68915 23.3335 10.0624 23.3335 11.6666C23.3335 13.2708 22.7623 14.644 21.62 15.7864C20.4776 16.9287 19.1043 17.4999 17.5002 17.4999ZM5.8335 29.1666V25.0833C5.8335 24.2569 6.04617 23.4973 6.47152 22.8046C6.89686 22.1119 7.46197 21.5833 8.16683 21.2187C9.67377 20.4652 11.205 19.9001 12.7606 19.5234C14.3161 19.1466 15.896 18.9583 17.5002 18.9583C19.1043 18.9583 20.6842 19.1466 22.2397 19.5234C23.7953 19.9001 25.3266 20.4652 26.8335 21.2187C27.5384 21.5833 28.1035 22.1119 28.5288 22.8046C28.9542 23.4973 29.1668 24.2569 29.1668 25.0833V29.1666H5.8335ZM8.75016 26.2499H26.2502V25.0833C26.2502 24.8159 26.1833 24.5728 26.0496 24.3541C25.916 24.1353 25.7397 23.9652 25.521 23.8437C24.2085 23.1874 22.8838 22.6952 21.547 22.3671C20.2102 22.039 18.8613 21.8749 17.5002 21.8749C16.1391 21.8749 14.7901 22.039 13.4533 22.3671C12.1165 22.6952 10.7918 23.1874 9.47933 23.8437C9.26058 23.9652 9.08436 24.1353 8.95068 24.3541C8.817 24.5728 8.75016 24.8159 8.75016 25.0833V26.2499ZM17.5002 14.5833C18.3022 14.5833 18.9889 14.2977 19.5601 13.7265C20.1312 13.1553 20.4168 12.4687 20.4168 11.6666C20.4168 10.8645 20.1312 10.1779 19.5601 9.60669C18.9889 9.03551 18.3022 8.74992 17.5002 8.74992C16.6981 8.74992 16.0114 9.03551 15.4403 9.60669C14.8691 10.1779 14.5835 10.8645 14.5835 11.6666C14.5835 12.4687 14.8691 13.1553 15.4403 13.7265C16.0114 14.2977 16.6981 14.5833 17.5002 14.5833Z" fill="#1C1B1F"/>
</g>
</svg>
