<svg width="23" height="23" viewBox="0 0 23 23" fill="none" xmlns="http://www.w3.org/2000/svg">
<mask id="mask0_436_973" style="mask-type:alpha" maskUnits="userSpaceOnUse" x="0" y="0" width="23" height="23">
<rect x="0.730957" y="0.346191" width="21.8077" height="21.8077" fill="#D9D9D9"/>
</mask>
<g mask="url(#mask0_436_973)">
<path d="M5.27441 19.4278V4.88933C5.27441 4.38957 5.45236 3.96175 5.80825 3.60586C6.16414 3.24997 6.59196 3.07202 7.09172 3.07202H16.1783C16.678 3.07202 17.1058 3.24997 17.4617 3.60586C17.8176 3.96175 17.9956 4.38957 17.9956 4.88933V19.4278L11.635 16.7018L5.27441 19.4278ZM7.09172 16.6564L11.635 14.7028L16.1783 16.6564V4.88933H7.09172V16.6564Z" fill="#6A8B97"/>
</g>
<path d="M14.218 13.8215C14.218 13.7314 14.218 13.4822 14.1729 12.9721C14.1091 12.2494 13.9449 10.5796 13.9449 8.7353C13.9449 8.15287 13.9449 8.28806 13.99 8.60557C14.2538 10.4646 14.6502 11.6577 14.6844 11.8178C14.8653 12.6662 14.1962 9.23033 13.991 8.39492C13.9271 8.13494 14.2849 9.0173 14.6151 9.38192C14.9469 9.74846 15.1733 10.0654 15.3095 10.089C15.8624 10.1846 15.5604 8.93126 15.5949 8.48574C15.6277 8.06154 15.742 7.70085 15.7772 6.74697C15.7907 6.38036 15.7202 6.06212 15.6751 5.77773C15.6201 5.43035 14.9486 5.49266 14.1665 5.36634C11.7241 4.97189 10.8764 5.14989 10.1587 5.09322C8.87424 4.99178 8.46197 5.14989 8.07414 5.2291C7.88 5.26875 7.79965 6.03071 7.22166 9.03095C7.04795 9.93266 6.93522 10.3829 6.82153 10.7701C6.74443 11.0326 6.63888 11.6092 6.62762 12.3371C6.60722 13.6546 6.7058 15.7074 6.93385 16.1191C7.13268 16.4781 7.8652 16.1212 8.38959 15.8597C8.89315 15.6086 9.48071 15.3018 9.98292 15.1083C10.4447 14.9302 10.7794 14.6873 11.1215 14.4258C11.2053 14.3617 11.2355 14.2558 11.2587 14.153C11.3065 13.9417 11.0792 13.123 10.7494 11.8957C10.2742 10.1273 10.1895 8.67999 10.1328 8.19042C10.095 7.86397 10.0987 7.58614 10.0194 7.40451C9.92609 7.19045 9.66712 7.08496 9.47389 7.06175C8.56086 6.95205 9.25675 9.56354 9.22227 10.7441C9.16526 11.4529 9.14273 11.9083 9.10859 12.3497C9.09698 12.656 9.09698 13.1291 9.09698 13.6167" stroke="#6A8B97" stroke-width="2" stroke-linecap="round"/>
<path d="M8.14108 14.5727C8.14108 14.5276 8.09601 14.234 8.02773 12.9906C7.97436 12.0188 8.00452 10.3502 8.01578 9.44618C8.04958 8.45201 8.1404 8.24649 8.26535 8.03072C8.32271 7.92762 8.36777 7.83749 8.48248 7.74463" stroke="#6A8B97" stroke-width="2" stroke-linecap="round"/>
<path d="M8.48242 7.74463C9.13791 7.74463 10.2782 7.6545 10.7227 7.35884C10.826 7.29015 10.9159 7.24482 10.9286 7.17653C10.9412 7.10825 10.8736 7.01812 10.7937 6.96043C10.4603 6.71962 9.89583 6.81192 9.45132 6.64156C9.23662 6.55927 9.09763 6.35717 8.96141 6.17554C8.89279 6.08405 8.82519 5.99392 9.29735 6.01508C11.9349 6.13333 12.4167 6.37902 12.9749 6.26567C13.9471 6.06827 14.33 6.42408 14.6608 6.54904C14.7364 6.57761 14.741 6.69584 14.7075 6.7648C14.4769 7.24025 13.176 7.06182 12.4563 7.35611C12.1066 7.49914 11.9654 7.81222 11.863 7.98224C11.5987 8.42099 12.0549 8.94909 12.2259 9.46086C12.4131 10.0208 12.5547 10.7667 12.8742 12.1313C12.9736 12.5555 12.9206 13.0828 12.8756 13.316C12.8305 13.5491 12.7404 13.4815 12.694 13.4017C12.4064 12.9068 12.2843 11.9807 12.1586 11.513C12.0277 11.0255 12.0781 10.2519 12.1238 9.636C12.1746 8.95242 12.5328 8.47523 12.5454 8.16626C12.5469 8.13021 12.4441 8.22122 12.398 8.30111C12.3063 8.45992 11.9907 9.87088 11.4789 11.9411C11.1466 13.2856 10.8736 14.2258 10.7927 14.8328C10.779 14.9356 10.7589 15.0261 10.7022 15.0274C10.6455 15.0288 10.5554 14.9387 10.509 14.7458C10.4626 14.5529 10.4626 14.2599 10.5527 14.0978C11.0153 13.2654 12.668 13.9349 13.2825 14.0828C13.8844 14.2275 14.6714 14.2982 15.036 14.5262C15.4466 14.7831 15.7188 15.1626 15.9697 15.4706C16.028 15.5421 16.0383 15.6406 15.9936 15.6983C15.7487 16.0142 15.1534 15.7116 14.6072 15.4955C13.8785 15.2072 13.4915 14.7106 13.1043 14.5163C12.6031 14.4361 12.0364 14.391 11.4567 14.3228C11.215 14.2996 11.0798 14.2996 10.9405 14.163" stroke="#6A8B97" stroke-width="2" stroke-linecap="round"/>
<path d="M13.3984 14.1629C13.7146 14.2755 14.4882 14.6395 15.1147 14.9129C15.3321 15.0078 15.4687 15.1638 15.7405 15.2321C15.918 15.2767 16.1925 15.2553 16.3543 15.1765C16.8676 14.9263 16.5175 13.76 16.1198 12.2787C15.9554 11.6664 15.6524 11.4323 15.5387 11.3862C15.4469 12.0871 15.4919 13.2274 15.4813 13.6497C15.4475 13.6856 15.3799 13.618 15.3103 13.4118" stroke="#6A8B97" stroke-width="2" stroke-linecap="round"/>
</svg>
