<svg width="22" height="23" viewBox="0 0 22 23" fill="none" xmlns="http://www.w3.org/2000/svg">
<mask id="mask0_1_2685" style="mask-type:alpha" maskUnits="userSpaceOnUse" x="0" y="0" width="22" height="23">
<rect y="0.345703" width="21.8077" height="21.8077" fill="#D9D9D9"/>
</mask>
<g mask="url(#mask0_1_2685)">
<path d="M15.4469 20.3362C14.6897 20.3362 14.0461 20.0711 13.5161 19.5411C12.986 19.011 12.721 18.3674 12.721 17.6102C12.721 17.5193 12.7437 17.3073 12.7891 16.9741L6.40584 13.2487C6.16353 13.4758 5.88337 13.6538 5.56534 13.7825C5.24731 13.9112 4.90656 13.9756 4.5431 13.9756C3.78589 13.9756 3.14226 13.7106 2.61221 13.1805C2.08216 12.6505 1.81714 12.0068 1.81714 11.2496C1.81714 10.4924 2.08216 9.84878 2.61221 9.31874C3.14226 8.78869 3.78589 8.52366 4.5431 8.52366C4.90656 8.52366 5.24731 8.58803 5.56534 8.71675C5.88337 8.84548 6.16353 9.02342 6.40584 9.25059L12.7891 5.52511C12.7588 5.4191 12.7399 5.31687 12.7323 5.21843C12.7248 5.12 12.721 5.0102 12.721 4.88905C12.721 4.13184 12.986 3.48821 13.5161 2.95816C14.0461 2.42811 14.6897 2.16309 15.4469 2.16309C16.2042 2.16309 16.8478 2.42811 17.3778 2.95816C17.9079 3.48821 18.1729 4.13184 18.1729 4.88905C18.1729 5.64626 17.9079 6.28989 17.3778 6.81994C16.8478 7.34999 16.2042 7.61501 15.4469 7.61501C15.0835 7.61501 14.7427 7.55065 14.4247 7.42192C14.1067 7.29319 13.8265 7.11525 13.5842 6.88809L7.20091 10.6136C7.2312 10.7196 7.25013 10.8218 7.2577 10.9202C7.26528 11.0187 7.26906 11.1285 7.26906 11.2496C7.26906 11.3708 7.26528 11.4806 7.2577 11.579C7.25013 11.6775 7.2312 11.7797 7.20091 11.8857L13.5842 15.6112C13.8265 15.384 14.1067 15.2061 14.4247 15.0773C14.7427 14.9486 15.0835 14.8842 15.4469 14.8842C16.2042 14.8842 16.8478 15.1493 17.3778 15.6793C17.9079 16.2094 18.1729 16.853 18.1729 17.6102C18.1729 18.3674 17.9079 19.011 17.3778 19.5411C16.8478 20.0711 16.2042 20.3362 15.4469 20.3362ZM15.4469 18.5189C15.7044 18.5189 15.9202 18.4318 16.0944 18.2576C16.2685 18.0835 16.3556 17.8677 16.3556 17.6102C16.3556 17.3528 16.2685 17.1369 16.0944 16.9628C15.9202 16.7886 15.7044 16.7015 15.4469 16.7015C15.1895 16.7015 14.9737 16.7886 14.7995 16.9628C14.6254 17.1369 14.5383 17.3528 14.5383 17.6102C14.5383 17.8677 14.6254 18.0835 14.7995 18.2576C14.9737 18.4318 15.1895 18.5189 15.4469 18.5189ZM4.5431 12.1583C4.80055 12.1583 5.01636 12.0712 5.19052 11.897C5.36468 11.7229 5.45175 11.5071 5.45175 11.2496C5.45175 10.9922 5.36468 10.7764 5.19052 10.6022C5.01636 10.4281 4.80055 10.341 4.5431 10.341C4.28565 10.341 4.06984 10.4281 3.89568 10.6022C3.72153 10.7764 3.63445 10.9922 3.63445 11.2496C3.63445 11.5071 3.72153 11.7229 3.89568 11.897C4.06984 12.0712 4.28565 12.1583 4.5431 12.1583ZM15.4469 5.7977C15.7044 5.7977 15.9202 5.71062 16.0944 5.53646C16.2685 5.3623 16.3556 5.1465 16.3556 4.88905C16.3556 4.6316 16.2685 4.41579 16.0944 4.24163C15.9202 4.06747 15.7044 3.98039 15.4469 3.98039C15.1895 3.98039 14.9737 4.06747 14.7995 4.24163C14.6254 4.41579 14.5383 4.6316 14.5383 4.88905C14.5383 5.1465 14.6254 5.3623 14.7995 5.53646C14.9737 5.71062 15.1895 5.7977 15.4469 5.7977Z" fill="#6A8B97"/>
</g>
</svg>
