<svg width="35" height="35" viewBox="0 0 35 35" fill="none" xmlns="http://www.w3.org/2000/svg">
<mask id="mask0_25_138" style="mask-type:alpha" maskUnits="userSpaceOnUse" x="0" y="0" width="35" height="35">
<rect width="35" height="35" fill="#D9D9D9"/>
</mask>
<g mask="url(#mask0_25_138)">
<path d="M24.7915 32.0833C23.5762 32.0833 22.5432 31.658 21.6925 30.8073C20.8419 29.9566 20.4165 28.9236 20.4165 27.7083C20.4165 27.5625 20.453 27.2222 20.5259 26.6875L10.2811 20.7083C9.8922 21.0729 9.44255 21.3585 8.93213 21.5651C8.42171 21.7717 7.87484 21.875 7.2915 21.875C6.07623 21.875 5.04324 21.4496 4.19255 20.5989C3.34185 19.7483 2.9165 18.7153 2.9165 17.5C2.9165 16.2847 3.34185 15.2517 4.19255 14.401C5.04324 13.5503 6.07623 13.125 7.2915 13.125C7.87484 13.125 8.42171 13.2283 8.93213 13.4349C9.44255 13.6415 9.8922 13.9271 10.2811 14.2917L20.5259 8.31249C20.4773 8.14235 20.4469 7.97829 20.4347 7.8203C20.4226 7.66232 20.4165 7.4861 20.4165 7.29166C20.4165 6.07638 20.8419 5.04339 21.6925 4.1927C22.5432 3.342 23.5762 2.91666 24.7915 2.91666C26.0068 2.91666 27.0398 3.342 27.8905 4.1927C28.7412 5.04339 29.1665 6.07638 29.1665 7.29166C29.1665 8.50693 28.7412 9.53992 27.8905 10.3906C27.0398 11.2413 26.0068 11.6667 24.7915 11.6667C24.2082 11.6667 23.6613 11.5634 23.1509 11.3568C22.6405 11.1502 22.1908 10.8646 21.8019 10.5L11.5571 16.4792C11.6057 16.6493 11.6361 16.8134 11.6483 16.9713C11.6604 17.1293 11.6665 17.3055 11.6665 17.5C11.6665 17.6944 11.6604 17.8707 11.6483 18.0286C11.6361 18.1866 11.6057 18.3507 11.5571 18.5208L21.8019 24.5C22.1908 24.1354 22.6405 23.8498 23.1509 23.6432C23.6613 23.4366 24.2082 23.3333 24.7915 23.3333C26.0068 23.3333 27.0398 23.7587 27.8905 24.6094C28.7412 25.4601 29.1665 26.493 29.1665 27.7083C29.1665 28.9236 28.7412 29.9566 27.8905 30.8073C27.0398 31.658 26.0068 32.0833 24.7915 32.0833ZM24.7915 29.1667C25.2047 29.1667 25.5511 29.0269 25.8306 28.7474C26.1101 28.4679 26.2498 28.1215 26.2498 27.7083C26.2498 27.2951 26.1101 26.9488 25.8306 26.6693C25.5511 26.3897 25.2047 26.25 24.7915 26.25C24.3783 26.25 24.032 26.3897 23.7524 26.6693C23.4729 26.9488 23.3332 27.2951 23.3332 27.7083C23.3332 28.1215 23.4729 28.4679 23.7524 28.7474C24.032 29.0269 24.3783 29.1667 24.7915 29.1667ZM7.2915 18.9583C7.7047 18.9583 8.05105 18.8186 8.33057 18.5391C8.61008 18.2595 8.74984 17.9132 8.74984 17.5C8.74984 17.0868 8.61008 16.7404 8.33057 16.4609C8.05105 16.1814 7.7047 16.0417 7.2915 16.0417C6.87831 16.0417 6.53196 16.1814 6.25244 16.4609C5.97293 16.7404 5.83317 17.0868 5.83317 17.5C5.83317 17.9132 5.97293 18.2595 6.25244 18.5391C6.53196 18.8186 6.87831 18.9583 7.2915 18.9583ZM24.7915 8.74999C25.2047 8.74999 25.5511 8.61023 25.8306 8.33072C26.1101 8.05121 26.2498 7.70485 26.2498 7.29166C26.2498 6.87846 26.1101 6.53211 25.8306 6.25259C25.5511 5.97308 25.2047 5.83332 24.7915 5.83332C24.3783 5.83332 24.032 5.97308 23.7524 6.25259C23.4729 6.53211 23.3332 6.87846 23.3332 7.29166C23.3332 7.70485 23.4729 8.05121 23.7524 8.33072C24.032 8.61023 24.3783 8.74999 24.7915 8.74999Z" fill="#6A8B97"/>
</g>
</svg>
