<svg width="169" height="41" viewBox="0 0 169 41" fill="none" xmlns="http://www.w3.org/2000/svg">
<path d="M22.4883 2.40909H27.7582L24.6048 21.4148C24.2639 23.4981 23.4684 25.3305 22.2184 26.9119C20.9779 28.4934 19.3964 29.7292 17.4741 30.6193C15.5517 31.5 13.4116 31.9403 11.0536 31.9403C8.67673 31.9403 6.67862 31.5 5.0593 30.6193C3.43999 29.7292 2.27048 28.4934 1.55078 26.9119C0.840554 25.3305 0.655895 23.4981 0.996804 21.4148L4.15021 2.40909H9.4201L6.33771 20.9744C6.13885 22.1866 6.22881 23.2661 6.6076 24.2131C6.99586 25.1506 7.63033 25.8892 8.51101 26.429C9.40116 26.9687 10.5138 27.2386 11.8491 27.2386C13.1843 27.2386 14.387 26.9687 15.457 26.429C16.5271 25.8892 17.4031 25.1506 18.0849 24.2131C18.7667 23.2661 19.207 22.1866 19.4059 20.9744L22.4883 2.40909ZM35.7021 18.7159L33.5998 31.5H28.4435L32.0799 9.68182H37.0089L36.3839 13.3892H36.6538C37.3356 12.1676 38.292 11.197 39.5231 10.4773C40.7541 9.75758 42.1888 9.39773 43.8271 9.39773C45.3138 9.39773 46.5638 9.7197 47.5771 10.3636C48.5903 10.9981 49.31 11.9309 49.7362 13.1619C50.1623 14.3835 50.2286 15.8655 49.935 17.608L47.6055 31.5H42.4634L44.6367 18.4034C44.8829 16.9545 44.6983 15.8182 44.0827 14.9943C43.4767 14.161 42.5013 13.7443 41.1566 13.7443C40.257 13.7443 39.4284 13.9432 38.6708 14.3409C37.9132 14.7292 37.274 15.2926 36.7532 16.0312C36.2418 16.7699 35.8915 17.6648 35.7021 18.7159ZM52.8043 31.5L56.4407 9.68182H61.5827L57.9464 31.5H52.8043ZM59.7646 6.55682C58.9407 6.55682 58.2589 6.2822 57.7191 5.73295C57.1793 5.18371 56.9426 4.52557 57.0089 3.75852C57.0752 2.99148 57.4208 2.33333 58.0458 1.78409C58.6803 1.23485 59.4047 0.960227 60.2191 0.960227C61.043 0.960227 61.7201 1.23485 62.2504 1.78409C62.7901 2.33333 63.0269 2.99148 62.9606 3.75852C62.9038 4.52557 62.5581 5.18371 61.9237 5.73295C61.2987 6.2822 60.579 6.55682 59.7646 6.55682ZM62.8647 31.5H61.8988L77.1261 2.40909H78.3761L83.9442 31.5H82.9783L77.6374 3.54545H77.5238L62.8647 31.5ZM67.9783 20.7614H81.5011L81.3306 21.6705H67.8079L67.9783 20.7614ZM89.104 31.5L92.7404 9.68182H93.6495L93.0813 13.1477H93.195C93.8768 12.0114 94.8616 11.1023 96.1495 10.4205C97.4469 9.73864 98.8484 9.39773 100.354 9.39773C100.468 9.39773 100.543 9.39773 100.581 9.39773C100.619 9.39773 100.695 9.39773 100.809 9.39773L100.638 10.3068C100.525 10.3068 100.449 10.3068 100.411 10.3068C100.373 10.3068 100.297 10.3068 100.184 10.3068C98.8957 10.3068 97.7025 10.5862 96.604 11.1449C95.515 11.7036 94.6012 12.4754 93.8626 13.4602C93.1334 14.4451 92.6647 15.572 92.4563 16.8409L90.0131 31.5H89.104ZM113.934 9.68182L113.763 10.5909H105.127L105.297 9.68182H113.934ZM109.331 4.45455H110.24L106.547 26.8977C106.396 27.75 106.457 28.4839 106.732 29.0994C107.007 29.7055 107.428 30.1742 107.996 30.5057C108.564 30.8277 109.218 30.9886 109.956 30.9886C110.212 30.9886 110.458 30.965 110.695 30.9176C110.941 30.8608 111.206 30.7898 111.49 30.7045L111.604 31.5568C111.292 31.6705 110.993 31.7557 110.709 31.8125C110.435 31.8693 110.127 31.8977 109.786 31.8977C108.896 31.8977 108.105 31.6941 107.414 31.2869C106.732 30.8797 106.221 30.3021 105.88 29.554C105.548 28.8059 105.468 27.9205 105.638 26.8977L109.331 4.45455ZM117.499 31.5L121.135 9.68182H122.044L118.408 31.5H117.499ZM122.3 5.70455C122.016 5.70455 121.789 5.60511 121.618 5.40625C121.457 5.20739 121.4 4.96591 121.448 4.68182C121.486 4.48295 121.599 4.30303 121.789 4.14205C121.978 3.97159 122.186 3.88636 122.414 3.88636C122.698 3.88636 122.92 3.98579 123.081 4.18466C123.252 4.38352 123.313 4.625 123.266 4.90909C123.228 5.11742 123.114 5.30208 122.925 5.46307C122.736 5.62405 122.527 5.70455 122.3 5.70455ZM132.275 40.1364C131.063 40.1364 129.965 39.9706 128.98 39.6392C127.995 39.3172 127.176 38.8295 126.522 38.1761C125.869 37.5322 125.438 36.7273 125.23 35.7614L126.082 35.4773C126.271 36.3295 126.645 37.0303 127.204 37.5795C127.763 38.1383 128.473 38.5502 129.335 38.8153C130.197 39.09 131.177 39.2273 132.275 39.2273C134.548 39.2273 136.437 38.6259 137.943 37.4233C139.449 36.2206 140.4 34.3977 140.798 31.9545L141.764 26.0455H141.65C141.082 27.2576 140.353 28.2708 139.463 29.0852C138.582 29.8902 137.611 30.4962 136.551 30.9034C135.5 31.3011 134.434 31.5 133.355 31.5C131.65 31.5 130.244 31.0407 129.136 30.1222C128.028 29.2036 127.266 27.9299 126.849 26.3011C126.432 24.6723 126.404 22.7879 126.764 20.6477C127.124 18.4886 127.787 16.5568 128.752 14.8523C129.718 13.1477 130.912 11.803 132.332 10.8182C133.752 9.83333 135.324 9.34091 137.048 9.34091C138.222 9.34091 139.25 9.58239 140.13 10.0653C141.02 10.5388 141.745 11.2206 142.304 12.1108C142.872 12.9915 143.26 14.0379 143.468 15.25H143.582L144.491 9.68182H145.4L141.707 31.9545C141.404 33.7538 140.831 35.2595 139.988 36.4716C139.145 37.6837 138.071 38.5975 136.764 39.2131C135.457 39.8286 133.961 40.1364 132.275 40.1364ZM133.355 30.5909C134.87 30.5909 136.267 30.1884 137.545 29.3835C138.833 28.5786 139.922 27.4328 140.812 25.946C141.712 24.4593 142.332 22.6932 142.673 20.6477C142.995 18.678 142.99 16.9119 142.659 15.3494C142.337 13.7775 141.698 12.5369 140.741 11.6278C139.794 10.7093 138.544 10.25 136.991 10.25C135.457 10.25 134.041 10.7093 132.744 11.6278C131.456 12.5369 130.367 13.7775 129.477 15.3494C128.596 16.9119 127.995 18.678 127.673 20.6477C127.351 22.6174 127.356 24.3504 127.687 25.8466C128.028 27.3333 128.672 28.4981 129.619 29.3409C130.575 30.1742 131.821 30.5909 133.355 30.5909ZM157.339 31.9545C155.616 31.9545 154.148 31.4574 152.936 30.4631C151.733 29.4688 150.871 28.1098 150.35 26.3864C149.839 24.6629 149.763 22.7121 150.123 20.5341C150.483 18.4129 151.193 16.5095 152.254 14.8239C153.324 13.1288 154.612 11.7936 156.118 10.8182C157.633 9.83333 159.233 9.34091 160.919 9.34091C162.661 9.34091 164.134 9.8428 165.336 10.8466C166.548 11.8504 167.41 13.214 167.922 14.9375C168.442 16.661 168.532 18.6023 168.191 20.7614C167.832 22.8826 167.117 24.7907 166.047 26.4858C164.976 28.1714 163.684 29.5066 162.169 30.4915C160.654 31.4669 159.044 31.9545 157.339 31.9545ZM157.339 31.0455C158.911 31.0455 160.393 30.5909 161.785 29.6818C163.177 28.7633 164.361 27.5133 165.336 25.9318C166.312 24.3409 166.96 22.5417 167.282 20.5341C167.604 18.5833 167.543 16.8314 167.098 15.2784C166.653 13.7254 165.9 12.4991 164.839 11.5994C163.779 10.6998 162.491 10.25 160.975 10.25C159.422 10.25 157.95 10.714 156.558 11.642C155.166 12.5606 153.977 13.8153 152.993 15.4062C152.008 16.9877 151.354 18.7727 151.032 20.7614C150.691 22.7121 150.743 24.464 151.189 26.017C151.643 27.5701 152.401 28.7964 153.461 29.696C154.531 30.5956 155.824 31.0455 157.339 31.0455Z" fill="white"/>
</svg>
