<svg width="170" height="40" viewBox="0 0 170 40" fill="none" xmlns="http://www.w3.org/2000/svg">
<path d="M22.9883 1.90909H28.2582L25.1048 20.9148C24.7639 22.9981 23.9684 24.8305 22.7184 26.4119C21.4779 27.9934 19.8964 29.2292 17.9741 30.1193C16.0517 31 13.9116 31.4403 11.5536 31.4403C9.17673 31.4403 7.17862 31 5.5593 30.1193C3.93999 29.2292 2.77048 27.9934 2.05078 26.4119C1.34055 24.8305 1.15589 22.9981 1.4968 20.9148L4.65021 1.90909H9.9201L6.83771 20.4744C6.63885 21.6866 6.72881 22.7661 7.1076 23.7131C7.49586 24.6506 8.13033 25.3892 9.01101 25.929C9.90116 26.4687 11.0138 26.7386 12.3491 26.7386C13.6843 26.7386 14.887 26.4687 15.957 25.929C17.0271 25.3892 17.9031 24.6506 18.5849 23.7131C19.2667 22.7661 19.707 21.6866 19.9059 20.4744L22.9883 1.90909ZM63.3647 31H62.3988L77.6261 1.90909H78.8761L84.4442 31H83.4783L78.1374 3.04545H78.0238L63.3647 31ZM68.4783 20.2614H82.0011L81.8306 21.1705H68.3079L68.4783 20.2614Z" fill="#072A40"/>
<path d="M36.2021 18.2159L34.0998 31H28.9435L32.5799 9.18182H37.5089L36.8839 12.8892H37.1538C37.8356 11.6676 38.792 10.697 40.0231 9.97727C41.2541 9.25758 42.6888 8.89773 44.3271 8.89773C45.8138 8.89773 47.0638 9.2197 48.0771 9.86364C49.0903 10.4981 49.81 11.4309 50.2362 12.6619C50.6623 13.8835 50.7286 15.3655 50.435 17.108L48.1055 31H42.9634L45.1367 17.9034C45.3829 16.4545 45.1983 15.3182 44.5827 14.4943C43.9767 13.661 43.0013 13.2443 41.6566 13.2443C40.757 13.2443 39.9284 13.4432 39.1708 13.8409C38.4132 14.2292 37.774 14.7926 37.2532 15.5312C36.7418 16.2699 36.3915 17.1648 36.2021 18.2159ZM53.3043 31L56.9407 9.18182H62.0827L58.4464 31H53.3043ZM60.2646 6.05682C59.4407 6.05682 58.7589 5.7822 58.2191 5.23295C57.6793 4.68371 57.4426 4.02557 57.5089 3.25852C57.5752 2.49148 57.9208 1.83333 58.5458 1.28409C59.1803 0.734848 59.9047 0.460227 60.7191 0.460227C61.543 0.460227 62.2201 0.734848 62.7504 1.28409C63.2901 1.83333 63.5269 2.49148 63.4606 3.25852C63.4038 4.02557 63.0581 4.68371 62.4237 5.23295C61.7987 5.7822 61.079 6.05682 60.2646 6.05682ZM89.604 31L93.2404 9.18182H94.1495L93.5813 12.6477H93.695C94.3768 11.5114 95.3616 10.6023 96.6495 9.92045C97.9469 9.23864 99.3484 8.89773 100.854 8.89773C100.968 8.89773 101.043 8.89773 101.081 8.89773C101.119 8.89773 101.195 8.89773 101.309 8.89773L101.138 9.80682C101.025 9.80682 100.949 9.80682 100.911 9.80682C100.873 9.80682 100.797 9.80682 100.684 9.80682C99.3957 9.80682 98.2025 10.0862 97.104 10.6449C96.015 11.2036 95.1012 11.9754 94.3626 12.9602C93.6334 13.9451 93.1647 15.072 92.9563 16.3409L90.5131 31H89.604ZM114.434 9.18182L114.263 10.0909H105.627L105.797 9.18182H114.434ZM109.831 3.95455H110.74L107.047 26.3977C106.896 27.25 106.957 27.9839 107.232 28.5994C107.507 29.2055 107.928 29.6742 108.496 30.0057C109.064 30.3277 109.718 30.4886 110.456 30.4886C110.712 30.4886 110.958 30.465 111.195 30.4176C111.441 30.3608 111.706 30.2898 111.99 30.2045L112.104 31.0568C111.792 31.1705 111.493 31.2557 111.209 31.3125C110.935 31.3693 110.627 31.3977 110.286 31.3977C109.396 31.3977 108.605 31.1941 107.914 30.7869C107.232 30.3797 106.721 29.8021 106.38 29.054C106.048 28.3059 105.968 27.4205 106.138 26.3977L109.831 3.95455ZM117.999 31L121.635 9.18182H122.544L118.908 31H117.999ZM122.8 5.20455C122.516 5.20455 122.289 5.10511 122.118 4.90625C121.957 4.70739 121.9 4.46591 121.948 4.18182C121.986 3.98295 122.099 3.80303 122.289 3.64205C122.478 3.47159 122.686 3.38636 122.914 3.38636C123.198 3.38636 123.42 3.48579 123.581 3.68466C123.752 3.88352 123.813 4.125 123.766 4.40909C123.728 4.61742 123.614 4.80208 123.425 4.96307C123.236 5.12405 123.027 5.20455 122.8 5.20455ZM132.775 39.6364C131.563 39.6364 130.465 39.4706 129.48 39.1392C128.495 38.8172 127.676 38.3295 127.022 37.6761C126.369 37.0322 125.938 36.2273 125.73 35.2614L126.582 34.9773C126.771 35.8295 127.145 36.5303 127.704 37.0795C128.263 37.6383 128.973 38.0502 129.835 38.3153C130.697 38.59 131.677 38.7273 132.775 38.7273C135.048 38.7273 136.937 38.1259 138.443 36.9233C139.949 35.7206 140.9 33.8977 141.298 31.4545L142.264 25.5455H142.15C141.582 26.7576 140.853 27.7708 139.963 28.5852C139.082 29.3902 138.111 29.9962 137.051 30.4034C136 30.8011 134.934 31 133.855 31C132.15 31 130.744 30.5407 129.636 29.6222C128.528 28.7036 127.766 27.4299 127.349 25.8011C126.932 24.1723 126.904 22.2879 127.264 20.1477C127.624 17.9886 128.287 16.0568 129.252 14.3523C130.218 12.6477 131.412 11.303 132.832 10.3182C134.252 9.33333 135.824 8.84091 137.548 8.84091C138.722 8.84091 139.75 9.08239 140.63 9.56534C141.52 10.0388 142.245 10.7206 142.804 11.6108C143.372 12.4915 143.76 13.5379 143.968 14.75H144.082L144.991 9.18182H145.9L142.207 31.4545C141.904 33.2538 141.331 34.7595 140.488 35.9716C139.645 37.1837 138.571 38.0975 137.264 38.7131C135.957 39.3286 134.461 39.6364 132.775 39.6364ZM133.855 30.0909C135.37 30.0909 136.767 29.6884 138.045 28.8835C139.333 28.0786 140.422 26.9328 141.312 25.446C142.212 23.9593 142.832 22.1932 143.173 20.1477C143.495 18.178 143.49 16.4119 143.159 14.8494C142.837 13.2775 142.198 12.0369 141.241 11.1278C140.294 10.2093 139.044 9.75 137.491 9.75C135.957 9.75 134.541 10.2093 133.244 11.1278C131.956 12.0369 130.867 13.2775 129.977 14.8494C129.096 16.4119 128.495 18.178 128.173 20.1477C127.851 22.1174 127.856 23.8504 128.187 25.3466C128.528 26.8333 129.172 27.9981 130.119 28.8409C131.075 29.6742 132.321 30.0909 133.855 30.0909ZM157.839 31.4545C156.116 31.4545 154.648 30.9574 153.436 29.9631C152.233 28.9688 151.371 27.6098 150.85 25.8864C150.339 24.1629 150.263 22.2121 150.623 20.0341C150.983 17.9129 151.693 16.0095 152.754 14.3239C153.824 12.6288 155.112 11.2936 156.618 10.3182C158.133 9.33333 159.733 8.84091 161.419 8.84091C163.161 8.84091 164.634 9.3428 165.836 10.3466C167.048 11.3504 167.91 12.714 168.422 14.4375C168.942 16.161 169.032 18.1023 168.691 20.2614C168.332 22.3826 167.617 24.2907 166.547 25.9858C165.476 27.6714 164.184 29.0066 162.669 29.9915C161.154 30.9669 159.544 31.4545 157.839 31.4545ZM157.839 30.5455C159.411 30.5455 160.893 30.0909 162.285 29.1818C163.677 28.2633 164.861 27.0133 165.836 25.4318C166.812 23.8409 167.46 22.0417 167.782 20.0341C168.104 18.0833 168.043 16.3314 167.598 14.7784C167.153 13.2254 166.4 11.9991 165.339 11.0994C164.279 10.1998 162.991 9.75 161.475 9.75C159.922 9.75 158.45 10.214 157.058 11.142C155.666 12.0606 154.477 13.3153 153.493 14.9062C152.508 16.4877 151.854 18.2727 151.532 20.2614C151.191 22.2121 151.243 23.964 151.689 25.517C152.143 27.0701 152.901 28.2964 153.961 29.196C155.031 30.0956 156.324 30.5455 157.839 30.5455Z" fill="white"/>
</svg>
